<svg id="Layer_1" data-name="Layer 1" xmlns="http://www.w3.org/2000/svg" viewBox="0 0 685 681.5"><defs><style>.cls-1{fill:#cdae7f;}.cls-2{fill:#a8d17a;}.cls-3{fill:#c8bf81;}.cls-4{fill:#a7c588;}.cls-5{fill:#dcf466;}.cls-34,.cls-36,.cls-6{font-size:19.2px;font-family:MillikRegular, Millik;}.cls-7{letter-spacing:-0.04em;}.cls-8{letter-spacing:-0.04em;}.cls-34,.cls-9{letter-spacing:-0.03em;}.cls-10{letter-spacing:0em;}.cls-11{letter-spacing:-0.03em;}.cls-12{fill:#f8cd79;}.cls-13{letter-spacing:-0.02em;}.cls-14{letter-spacing:-0.04em;}.cls-15{letter-spacing:-0.03em;}.cls-16{fill:#d2cbb3;}.cls-17{letter-spacing:-0.11em;}.cls-18{letter-spacing:-0.01em;}.cls-19{fill:#b6ffa9;}.cls-20{letter-spacing:-0.01em;}.cls-21{letter-spacing:-0.05em;}.cls-22{fill:#b3ffe5;}.cls-23{letter-spacing:-0.01em;}.cls-24{letter-spacing:-0.05em;}.cls-25{font-size:16.8px;font-family:CircularStd-Book, Circular Std;}.cls-26{letter-spacing:-0.02em;}.cls-27{letter-spacing:0em;}.cls-28{letter-spacing:0em;}.cls-29{fill:#ddff8b;}.cls-30{fill:#fcf273;}.cls-31{letter-spacing:-0.05em;}.cls-32{fill:#f6b4a9;}.cls-33{letter-spacing:-0.01em;}.cls-35{fill:#6f875c;}.cls-36{fill:#fff;}</style></defs><path class="cls-1" d="M392.5,341A164.4,164.4,0,0,1,387.59,381a159.49,159.49,0,0,0,68.21-40.45q-2.54-2.52-5.19-4.94a158.31,158.31,0,0,0-14.92-12c-1-.75-2.09-1.48-3.16-2.19q-3.18-2.16-6.47-4.15a159.15,159.15,0,0,0-20.64-10.57c-2.38-1-4.8-2-7.24-2.86q-5.28-1.92-10.73-3.49A164.06,164.06,0,0,1,392.5,341Z"/><path class="cls-2" d="M230.4,341a159.53,159.53,0,0,0,67,39.79,165.76,165.76,0,0,1,.07-79.89c-3,.91-6,1.9-9,3-2.44.9-4.86,1.85-7.24,2.86a159.15,159.15,0,0,0-20.64,10.57q-3.29,2-6.47,4.15c-1.07.71-2.12,1.44-3.16,2.19a158.31,158.31,0,0,0-14.92,12Q233.13,338.2,230.4,341Z"/><path class="cls-3" d="M316.56,264.88q-3.68,6.78-6.72,13.95c-1,2.38-2,4.8-2.86,7.24s-1.73,4.92-2.5,7.42c-.06.17-.1.34-.16.51a165.73,165.73,0,0,1,76.23-.41l0-.1c-.77-2.5-1.61-5-2.5-7.42s-1.85-4.86-2.86-7.24q-3-7.17-6.72-13.95a159.16,159.16,0,0,0-14.78-22.46,157.21,157.21,0,0,0-11.16-12.74,157.21,157.21,0,0,0-11.16,12.74A159.16,159.16,0,0,0,316.56,264.88Z"/><path class="cls-4" d="M342.9,392.15a164.18,164.18,0,0,1-38.67-4.58,159.47,159.47,0,0,0,38.27,64.65,159.34,159.34,0,0,0,38.21-64.44A164.45,164.45,0,0,1,342.9,392.15Z"/><path class="cls-5" d="M227,337.51h0a164.31,164.31,0,0,1,71.84-42.09,163.88,163.88,0,0,1,40.21-69.12q-1.82-1.77-3.69-3.48a158.31,158.31,0,0,0-14.92-12c-1-.75-2.09-1.48-3.16-2.19q-3.18-2.16-6.47-4.15a159.15,159.15,0,0,0-20.64-10.57c-2.38-1-4.8-2-7.24-2.86a159.07,159.07,0,0,0-18.84-5.59q-3.86-.9-7.79-1.6a161.5,161.5,0,0,0-56.5,0q-3.93.71-7.79,1.6c-1.11.25-2.2.52-3.3.8-.14.54-.3,1.08-.44,1.62-.32,1.28-.64,2.56-.93,3.85q-.9,3.85-1.6,7.79a159.93,159.93,0,0,0,41.25,138Z"/><text class="cls-6" transform="translate(219.69 257.11)"><tspan class="cls-7">P</tspan><tspan class="cls-8" x="13.09" y="0">as</tspan><tspan class="cls-9" x="33.72" y="0">s</tspan><tspan class="cls-10" x="43.24" y="0">i</tspan><tspan class="cls-11" x="49.36" y="0">o</tspan><tspan x="61.21" y="0">n</tspan></text><path class="cls-12" d="M500,199.5q-.7-3.93-1.6-7.79c-.29-1.29-.61-2.57-.93-3.85-.13-.47-.26-.93-.38-1.4-1.38-.36-2.77-.7-4.16-1q-3.85-.9-7.79-1.6a161.5,161.5,0,0,0-56.5,0q-3.93.71-7.79,1.6A159.07,159.07,0,0,0,402,191c-2.44.9-4.86,1.85-7.24,2.86a159.15,159.15,0,0,0-20.64,10.57q-3.28,2-6.47,4.15c-1.07.71-2.12,1.44-3.16,2.19a158.31,158.31,0,0,0-14.92,12q-1.87,1.71-3.69,3.48A163.65,163.65,0,0,1,386,295a163.75,163.75,0,0,1,73.17,42.15A159.92,159.92,0,0,0,500,199.5Z"/><text class="cls-6" transform="translate(395.61 257.11)">M<tspan class="cls-13" x="17.34" y="0">i</tspan><tspan class="cls-14" x="23" y="0">s</tspan><tspan class="cls-15" x="32.28" y="0">s</tspan><tspan x="41.8" y="0">i</tspan><tspan class="cls-11" x="47.92" y="0">o</tspan><tspan x="59.77" y="0">n</tspan></text><path class="cls-16" d="M459.15,344a163.85,163.85,0,0,1-73,42.4,162.06,162.06,0,0,1-6.55,18.54,163.8,163.8,0,0,1-33.68,50.67,159.83,159.83,0,0,0,151.51,39.75,160.86,160.86,0,0,0,3-69.86q-.71-3.93-1.6-7.79c-.29-1.29-.61-2.57-.93-3.85q-1-3.83-2.16-7.57c-.77-2.5-1.61-5-2.5-7.42s-1.85-4.86-2.86-7.24q-3-7.17-6.72-13.95a159.16,159.16,0,0,0-14.78-22.46q-4.59-5.85-9.7-11.23Z"/><text class="cls-6" transform="translate(389.57 444.15)"><tspan class="cls-17">V</tspan><tspan class="cls-18" x="13.29" y="0">o</tspan><tspan class="cls-14" x="25.4" y="0">c</tspan><tspan class="cls-7" x="35.9" y="0">a</tspan><tspan x="47.23" y="0">ti</tspan><tspan class="cls-11" x="61.59" y="0">o</tspan><tspan x="73.44" y="0">n</tspan></text><path class="cls-19" d="M189.31,495.79A159.76,159.76,0,0,0,339.1,455.61a163.82,163.82,0,0,1-40.3-69.44,164,164,0,0,1-71.74-41.77c-3.26,3.46-6.38,7.07-9.32,10.82A159.16,159.16,0,0,0,203,377.68q-3.68,6.78-6.72,13.95c-1,2.38-2,4.8-2.86,7.24s-1.73,4.92-2.5,7.42-1.5,5-2.16,7.57c-.32,1.28-.64,2.56-.93,3.85q-.9,3.85-1.6,7.79a160.79,160.79,0,0,0,3.12,70.29Z"/><text class="cls-6" transform="translate(202.83 444.15)">P<tspan class="cls-9" x="13.88" y="0">r</tspan><tspan class="cls-20" x="22.39" y="0">o</tspan><tspan class="cls-21" x="34.48" y="0">f</tspan><tspan class="cls-14" x="41.57" y="0">es</tspan><tspan class="cls-15" x="61.44" y="0">s</tspan><tspan class="cls-10" x="70.96" y="0">i</tspan><tspan class="cls-11" x="77.09" y="0">o</tspan><tspan x="88.93" y="0">n</tspan></text><path class="cls-22" d="M392.91,492.43A163.73,163.73,0,0,1,342.5,459a164.66,164.66,0,0,1-151.65,42.11,159.65,159.65,0,0,0,305-.41,165.21,165.21,0,0,1-103-8.27Z"/><text class="cls-6" transform="translate(303.05 564.88)"><tspan class="cls-7">P</tspan><tspan class="cls-23" x="13.09" y="0">a</tspan><tspan class="cls-13" x="24.96" y="0">i</tspan><tspan x="30.62" y="0">d </tspan><tspan class="cls-24" x="48.56" y="0">F</tspan><tspan class="cls-23" x="59.5" y="0">o</tspan><tspan x="71.6" y="0">r</tspan></text><text class="cls-25" transform="translate(306.99 516.88)">What <tspan class="cls-26" x="45.26" y="0">y</tspan><tspan class="cls-27" x="53.71" y="0">o</tspan><tspan x="63.24" y="0">u</tspan><tspan class="cls-28" x="11.21" y="20.16">c</tspan><tspan x="20.03" y="20.16">an be</tspan></text><path class="cls-29" d="M191.82,389.76A163.79,163.79,0,0,1,223.7,341,164.71,164.71,0,0,1,183.41,187.7q-5.16,1.5-10.19,3.33c-2.44.9-4.86,1.85-7.24,2.86a159.15,159.15,0,0,0-20.64,10.57q-3.28,2-6.47,4.15c-1.07.71-2.12,1.44-3.16,2.19a158.31,158.31,0,0,0-14.92,12,160.44,160.44,0,0,0-33,42.07q-3.67,6.78-6.72,13.95c-1,2.38-2,4.8-2.86,7.24s-1.73,4.92-2.5,7.42-1.5,5-2.16,7.57c-.32,1.28-.64,2.56-.93,3.85q-.9,3.85-1.6,7.79A159.84,159.84,0,0,0,184,494.36a165.26,165.26,0,0,1,7.87-104.6Z"/><text class="cls-25" transform="translate(109.73 324.53)">What <tspan class="cls-26" x="45.26" y="0">y</tspan><tspan class="cls-27" x="53.71" y="0">o</tspan><tspan x="63.24" y="0">u</tspan><tspan x="24.39" y="20.16">a</tspan><tspan class="cls-27" x="33.17" y="20.16">r</tspan><tspan x="39.25" y="20.16">e</tspan></text><text class="cls-6" transform="translate(106.17 366.93)"><tspan class="cls-15">G</tspan><tspan class="cls-23" x="15.19" y="0">oo</tspan><tspan x="39.38" y="0">d </tspan><tspan class="cls-24" x="57.31" y="0">A</tspan><tspan x="71.62" y="0">t</tspan></text><path class="cls-30" d="M228.1,176.55A163.79,163.79,0,0,1,342.5,222.9a164.62,164.62,0,0,1,153.07-41.77c-.08-.28-.16-.56-.25-.84-.77-2.5-1.61-5-2.5-7.42S491,168,490,165.63q-3-7.17-6.72-13.95A160.27,160.27,0,0,0,435.29,97.6c-1-.75-2.09-1.48-3.16-2.19q-3.18-2.16-6.47-4.15A159.15,159.15,0,0,0,405,80.69c-2.38-1-4.8-2-7.24-2.86a159.07,159.07,0,0,0-18.84-5.59q-3.85-.9-7.79-1.6a161.5,161.5,0,0,0-56.5,0q-3.93.7-7.79,1.6A159.07,159.07,0,0,0,288,77.83c-2.44.9-4.86,1.85-7.24,2.86a159.15,159.15,0,0,0-20.64,10.57q-3.28,2-6.47,4.15c-1.07.71-2.12,1.44-3.16,2.19a158.31,158.31,0,0,0-14.92,12,160.44,160.44,0,0,0-33,42.07q-3.67,6.78-6.72,13.95c-1,2.38-2,4.8-2.86,7.24s-1.73,4.92-2.5,7.42c-.07.21-.13.42-.19.63A164.45,164.45,0,0,1,228.1,176.55Z"/><text class="cls-25" transform="translate(306.56 140.12)">What <tspan class="cls-26" x="45.26" y="0">y</tspan><tspan class="cls-27" x="53.71" y="0">o</tspan><tspan x="63.24" y="0">u</tspan></text><text class="cls-6" transform="translate(320.37 160.33)"><tspan class="cls-9">L</tspan><tspan class="cls-31" x="11.14" y="0">ov</tspan><tspan x="33.75" y="0">e</tspan></text><path class="cls-32" d="M614,312.7q-.71-3.93-1.6-7.79c-.29-1.29-.61-2.57-.93-3.85q-1-3.82-2.16-7.57c-.77-2.5-1.61-5-2.5-7.42s-1.85-4.86-2.86-7.24q-3-7.17-6.72-13.95a160.27,160.27,0,0,0-48-54.08c-1-.75-2.09-1.48-3.16-2.19q-3.18-2.16-6.47-4.15A159.15,159.15,0,0,0,519,193.89c-2.38-1-4.8-2-7.24-2.86q-4.61-1.68-9.33-3.07A164.17,164.17,0,0,1,462.5,340.54a164.73,164.73,0,0,1,40.28,153.31A159.85,159.85,0,0,0,614,312.7Z"/><text class="cls-25" transform="translate(504.62 325.42)">What the<tspan class="cls-33" x="13.35" y="20.16">w</tspan><tspan x="26.5" y="20.16">orld</tspan></text><text class="cls-34" transform="translate(509.75 365.79)">N<tspan class="cls-20" x="14.3" y="0">e</tspan><tspan class="cls-18" x="25.42" y="0">ed</tspan><tspan class="cls-10" x="49.46" y="0">s</tspan></text><path class="cls-35" d="M382.24,382.46a160.91,160.91,0,0,0,3-69.76q-.7-3.93-1.6-7.79c-.29-1.29-.61-2.57-.93-3.85-.19-.72-.39-1.43-.59-2.15-.91-.23-1.83-.46-2.75-.67q-3.85-.9-7.79-1.6a161.5,161.5,0,0,0-56.5,0q-3.93.71-7.79,1.6c-1.5.34-3,.72-4.47,1.1-.15.58-.32,1.15-.47,1.72-.32,1.28-.64,2.56-.93,3.85q-.9,3.85-1.6,7.79a160.94,160.94,0,0,0,2.91,69.54,160.69,160.69,0,0,0,79.54.22Z"/><text class="cls-36" transform="translate(311.56 346.43)">IKI<tspan class="cls-15" x="25.36" y="0">G</tspan><tspan x="40.55" y="0">AI</tspan></text></svg>